<?xml version="1.0" encoding="UTF-8" standalone="no"?>
<!-- Created with Inkscape (http://www.inkscape.org/) -->

<svg
   xmlns:dc="http://purl.org/dc/elements/1.1/"
   xmlns:cc="http://creativecommons.org/ns#"
   xmlns:rdf="http://www.w3.org/1999/02/22-rdf-syntax-ns#"
   xmlns:svg="http://www.w3.org/2000/svg"
   xmlns="http://www.w3.org/2000/svg"
   xmlns:sodipodi="http://sodipodi.sourceforge.net/DTD/sodipodi-0.dtd"
   xmlns:inkscape="http://www.inkscape.org/namespaces/inkscape"
   version="1.1"
   id="svg2"
   xml:space="preserve"
   width="512"
   height="162.05663"
   viewBox="0 0 512.00001 162.05663"
   sodipodi:docname="ravensys-white.svg"
   inkscape:version="0.92.1 r"><metadata
     id="metadata8"><rdf:RDF><cc:Work
         rdf:about=""><dc:format>image/svg+xml</dc:format><dc:type
           rdf:resource="http://purl.org/dc/dcmitype/StillImage" /><dc:title></dc:title></cc:Work></rdf:RDF></metadata><defs
     id="defs6" /><sodipodi:namedview
     pagecolor="#ffffff"
     bordercolor="#666666"
     borderopacity="1"
     objecttolerance="10"
     gridtolerance="10"
     guidetolerance="10"
     inkscape:pageopacity="0"
     inkscape:pageshadow="2"
     inkscape:window-width="1920"
     inkscape:window-height="1025"
     id="namedview4"
     showgrid="false"
     inkscape:zoom="1"
     inkscape:cx="42.442576"
     inkscape:cy="8.8758726"
     inkscape:window-x="0"
     inkscape:window-y="27"
     inkscape:window-maximized="1"
     inkscape:current-layer="g12"
     fit-margin-top="0"
     fit-margin-left="0"
     fit-margin-right="0"
     fit-margin-bottom="0"
     inkscape:pagecheckerboard="true" /><g
     id="g10"
     inkscape:groupmode="layer"
     inkscape:label="ink_ext_XXXXXX"
     transform="matrix(1.3333333,0,0,-1.3333333,-52.870799,226.70357)"><g
       id="g12"
       transform="scale(0.1)"><path
         d="m 2196.6126,1084.1027 -432.0745,432.0749 -1368.0071,184.0992 67.80718,-67.8069 1156.75012,-187.818 543.6284,-633.06561 -178.612,-166.17116 330.1587,-160.28032 v -0.28276 l 0.2862,0.13751 0.2939,-0.13751 v 0.28276 l 330.1399,160.28032 -178.6155,166.17116 543.6229,633.06561 1158.9507,188.1728 65.5896,67.4521 -1367.9904,-184.0992 -432.0715,-432.0749 -119.915,105.5558 z m -1689.15789,504.7672 87.67566,-91.2234 873.18713,-193.4922 c 0,0 86.6935,-112.8693 183.0445,-234.5312 l 243.0594,-63.2049 -323.4441,385.3374 z m 132.78796,-138.1994 80.98527,-84.2507 522.84306,-140.1185 68.6725,-68.6662 228.3204,-59.3457 -120.2747,161.0917 z m 2098.41053,-444.2523 243.059,63.2049 c 96.3847,121.6619 183.0504,234.5312 183.0504,234.5312 l 875.1339,193.8987 88.8844,91.3923 -1066.6757,-197.6897 z m 353.3873,91.8712 228.2998,59.3457 68.6657,68.6662 522.8414,140.1185 82.2632,84.5624 -781.7937,-191.6011 z m -783.087,-177.57657 82.259,101.86017 -82.8766,-42.97534 -77.9267,42.97534 78.5443,-101.86017"
         style="fill:#ffffff;fill-opacity:1;fill-rule:evenodd;stroke:none;stroke-width:6.13585377"
         id="path28"
         inkscape:connector-curvature="0" /></g></g></svg>